<?xml version="1.0" encoding="UTF-8"?>
<svg id="Layer_1" data-name="Layer 1" xmlns="http://www.w3.org/2000/svg" xmlns:xlink="http://www.w3.org/1999/xlink" viewBox="0 0 174.74 171.97">
  <defs>
    <style>
      .cls-1 {
        fill: url(#linear-gradient);
      }
    </style>
    <linearGradient id="linear-gradient" x1="121.09" y1="165.82" x2="19.05" y2="-10.91" gradientUnits="userSpaceOnUse">
      <stop offset="0" stop-color="#5631fa"/>
      <stop offset="1" stop-color="#3ac8f8"/>
    </linearGradient>
  </defs>
  <path class="cls-1" d="M54.1,171.97c-2.62,0-5.08-1.02-6.94-2.87-3.82-3.82-3.82-10.05,0-13.87l48.76-48.76c1.85-1.85,4.31-2.87,6.94-2.87s5.08,1.02,6.94,2.87c3.82,3.82,3.82,10.05,0,13.87l-35.55,35.55,10.26-.44c41.6-1.77,69.54-29.69,69.54-69.47S124.37,16.42,80.2,16.42H19.94v52.81l19.37-19.37c1.85-1.85,4.32-2.87,6.94-2.87s5.08,1.02,6.94,2.87c3.82,3.82,3.82,10.05,0,13.87L16.93,99.98c-1.85,1.85-4.32,2.87-6.94,2.87s-5.08-1.02-6.94-2.87C-.18,96.73-.17,90.14,.12,87.87l.03-.24V0H80.2c28.13,0,52.16,8.87,69.5,25.65,16.15,15.63,25.04,37.05,25.04,60.34s-8.89,44.82-25.03,60.42c-17.31,16.72-41.34,25.56-69.5,25.56h-20.38s-2.2,0-5.73,0Zm-44.16-12.46c-2.62,0-5.08-1.02-6.94-2.87-3.82-3.82-3.82-10.05,0-13.87L95.94,49.84c1.85-1.85,4.31-2.87,6.94-2.87s5.08,1.02,6.94,2.87c3.82,3.82,3.82,10.05,0,13.87L16.88,156.64c-1.85,1.85-4.32,2.87-6.94,2.87Z"/>
</svg>